<svg width="19" height="23" viewBox="0 0 19 23" fill="none" xmlns="http://www.w3.org/2000/svg">
<path d="M15.7689 12.3011C15.7796 11.4664 16.0013 10.648 16.4134 9.92207C16.8254 9.19611 17.4143 8.58618 18.1254 8.149C17.6737 7.50384 17.0777 6.9729 16.3849 6.59835C15.6921 6.2238 14.9215 6.01595 14.1343 5.99132C12.455 5.81506 10.8271 6.99615 9.97137 6.99615C9.0991 6.99615 7.7816 6.00882 6.36287 6.03801C5.4452 6.06766 4.55085 6.33451 3.76697 6.81257C2.98309 7.29063 2.33642 7.96359 1.88995 8.76588C-0.0440497 12.1143 1.39854 17.0354 3.25115 19.742C4.17805 21.0673 5.26133 22.5478 6.67878 22.4953C8.06584 22.4377 8.58388 21.6108 10.2582 21.6108C11.9169 21.6108 12.403 22.4953 13.8492 22.4619C15.3376 22.4377 16.2753 21.1306 17.1697 19.7927C17.8357 18.8484 18.3481 17.8047 18.6881 16.7002C17.8234 16.3345 17.0855 15.7223 16.5664 14.94C16.0472 14.1577 15.7699 13.2399 15.7689 12.3011Z" fill="white"/>
<path d="M13.0372 4.21126C13.8488 3.23705 14.2486 1.98487 14.1518 0.720642C12.9119 0.850863 11.7667 1.44342 10.9442 2.38025C10.542 2.83792 10.234 3.37035 10.0378 3.94712C9.84155 4.52389 9.7609 5.13369 9.80047 5.74164C10.4206 5.74803 11.0341 5.61361 11.5948 5.34853C12.1554 5.08344 12.6486 4.69459 13.0372 4.21126Z" fill="white"/>
</svg>