<svg width="54" height="56" viewBox="0 0 54 56" fill="none" xmlns="http://www.w3.org/2000/svg">
<path opacity="0.5" d="M36.9283 3.07106C43.228 -3.22859 53.9994 1.23309 53.9994 10.1421L53.9994 29C53.9994 34.5229 49.5222 39 43.9994 39L25.1415 39C16.2324 39 11.7708 28.2286 18.0704 21.9289L36.9283 3.07106Z" fill="#15803D"/>
<path d="M43.6667 54.3332L1 40.9998M43.6667 54.3332H1V40.9998L43.6667 54.3332ZM43.6667 54.3332V32.9998C43.6667 21.2178 34.1155 11.6665 22.3333 11.6665C20.2152 11.6665 18.1693 11.9752 16.2381 12.5499C7.42595 15.1726 1 23.3358 1 32.9998V40.9998L43.6667 54.3332Z" stroke="#78350F" stroke-width="1.5" stroke-linecap="round" stroke-linejoin="round"/>
<path d="M33 25V27.6667" stroke="#78350F" stroke-width="1.5" stroke-linecap="round"/>
<path d="M22.3333 22.3335V25.0002" stroke="#78350F" stroke-width="1.5" stroke-linecap="round"/>
<path d="M11.6667 19.6665V22.3332" stroke="#78350F" stroke-width="1.5" stroke-linecap="round"/>
</svg>
