<svg width="21" height="21" viewBox="0 0 21 21" fill="none" xmlns="http://www.w3.org/2000/svg">
<path d="M2.752 8.20361C2.58416 8.85702 2.49949 9.529 2.5 10.2036C2.5 10.8936 2.588 11.5636 2.752 12.2036H5.6C5.46518 10.8737 5.46518 9.53354 5.6 8.20361H2.752ZM3.57 6.20361H5.916C6.182 4.98661 6.566 3.89661 7.037 2.98961C5.58518 3.68903 4.37722 4.80885 3.57 6.20361ZM18.248 8.20361H15.4C15.5348 9.53354 15.5348 10.8737 15.4 12.2036H18.248C18.5847 10.8915 18.5847 9.51569 18.248 8.20361ZM17.43 6.20361C16.6228 4.80885 15.4148 3.68903 13.963 2.98961C14.435 3.89661 14.818 4.98661 15.084 6.20361H17.43ZM7.612 8.20361C7.53708 8.86764 7.49968 9.53537 7.5 10.2036C7.5 10.8886 7.538 11.5586 7.612 12.2036H13.388C13.5386 10.8745 13.5386 9.53269 13.388 8.20361H7.612ZM7.97 6.20361H13.03C12.848 5.45191 12.5855 4.72202 12.247 4.02661C11.619 2.77161 10.947 2.20361 10.5 2.20361C10.052 2.20361 9.381 2.77161 8.753 4.02661C8.438 4.65861 8.173 5.39361 7.97 6.20361ZM3.57 14.2036C4.37722 15.5984 5.58518 16.7182 7.037 17.4176C6.565 16.5106 6.182 15.4206 5.916 14.2036H3.57ZM17.43 14.2036H15.084C14.818 15.4206 14.434 16.5106 13.963 17.4176C15.4148 16.7182 16.6228 15.5984 17.43 14.2036ZM7.97 14.2036C8.173 15.0136 8.438 15.7486 8.753 16.3806C9.381 17.6356 10.053 18.2036 10.5 18.2036C10.948 18.2036 11.619 17.6356 12.247 16.3806C12.562 15.7486 12.827 15.0136 13.03 14.2036H7.97ZM10.5 20.2036C4.977 20.2036 0.5 15.7266 0.5 10.2036C0.5 4.68061 4.977 0.203613 10.5 0.203613C16.023 0.203613 20.5 4.68061 20.5 10.2036C20.5 15.7266 16.023 20.2036 10.5 20.2036Z" fill="#E2E8F0"/>
</svg>
