<svg width="23" height="26" viewBox="0 0 23 26" fill="none" xmlns="http://www.w3.org/2000/svg">
<path d="M10.7199 12.4199L0.0699463 23.7199C0.186289 24.1473 0.399321 24.5423 0.692585 24.8742C0.985849 25.2062 1.3515 25.4663 1.76128 25.6345C2.17107 25.8026 2.61403 25.8744 3.05595 25.8441C3.49787 25.8138 3.92691 25.6824 4.30995 25.4599L16.3099 18.5399L10.7199 12.4199Z" fill="#EA4335"/>
<path d="M21.49 10.5L16.31 7.5L10.49 12.69L16.33 18.54L21.48 15.54C21.9378 15.2948 22.3205 14.93 22.5873 14.4845C22.8541 14.0389 22.995 13.5293 22.995 13.01C22.995 12.4907 22.8541 11.9811 22.5873 11.5355C22.3205 11.09 21.9378 10.7252 21.48 10.48L21.49 10.5Z" fill="#FBBC04"/>
<path d="M0.0700493 2.28027C0.017166 2.51648 -0.00634496 2.75831 4.95699e-05 3.00027V23.0003C0.00179484 23.2502 0.0353995 23.4989 0.10005 23.7403L11.1 12.7403L0.0700493 2.28027Z" fill="#4285F4"/>
<path d="M10.8 12.9996L16.31 7.48965L4.31004 0.549648C3.85921 0.281649 3.34451 0.140022 2.82004 0.139648C2.1874 0.141461 1.57283 0.350817 1.07065 0.735584C0.568461 1.12035 0.206406 1.65927 0.0400391 2.26965L10.8 12.9996Z" fill="#34A853"/>
</svg>