<svg width="20" height="17" viewBox="0 0 20 17" fill="none" xmlns="http://www.w3.org/2000/svg">
<path d="M20 1.90701C19.2504 2.23439 18.4565 2.44905 17.644 2.54401C18.4968 2.04324 19.138 1.24912 19.448 0.310011C18.64 0.780339 17.7587 1.11161 16.841 1.29001C16.4545 0.885217 15.9897 0.563399 15.4748 0.34419C14.9598 0.124981 14.4056 0.0129768 13.846 0.0150114C11.58 0.0150114 9.743 1.82501 9.743 4.05501C9.743 4.37101 9.779 4.68001 9.849 4.97501C8.22358 4.89771 6.63212 4.48242 5.17617 3.75565C3.72022 3.02888 2.43176 2.00659 1.393 0.754011C1.02883 1.36841 0.837415 2.06979 0.839 2.78401C0.839697 3.45198 1.00683 4.10924 1.32529 4.6964C1.64375 5.28357 2.1035 5.78212 2.663 6.14701C2.01248 6.12601 1.37602 5.95234 0.805 5.64001V5.69001C0.805 7.64801 2.22 9.28101 4.095 9.65301C3.74261 9.74651 3.37958 9.79391 3.015 9.79401C2.75 9.79401 2.493 9.76901 2.242 9.71901C2.51008 10.5269 3.02311 11.2313 3.70982 11.7344C4.39653 12.2374 5.22284 12.5141 6.074 12.526C4.61407 13.6506 2.82182 14.2581 0.979 14.253C0.647 14.253 0.321 14.233 0 14.197C1.88125 15.3877 4.06259 16.0183 6.289 16.015C13.836 16.015 17.962 9.85801 17.962 4.51901L17.948 3.99601C18.7529 3.42968 19.4481 2.72186 20 1.90701Z" fill="#E2E8F0"/>
</svg>
