<svg width="20" height="20" viewBox="0 0 20 20" fill="none" xmlns="http://www.w3.org/2000/svg">
<path d="M17.726 4.62402H2.35938C1.18438 4.62402 0.234375 5.57402 0.234375 6.74902V16.9157C0.234375 18.0907 1.18438 19.0407 2.35938 19.0407H17.7344C18.9094 19.0407 19.8594 18.0907 19.8594 16.9157V6.74902C19.8594 5.57402 18.9094 4.62402 17.7344 4.62402H17.726ZM15.326 13.0407C14.5177 13.0407 13.8594 12.3824 13.8594 11.574C13.8594 10.7657 14.5177 10.1074 15.326 10.1074C16.1344 10.1074 16.7927 10.7657 16.7927 11.574C16.7927 12.3824 16.1344 13.0407 15.326 13.0407Z" fill="white"/>
<path d="M14.2088 0.982841C16.8338 0.749508 17.9255 3.49117 17.9255 3.49117C17.9255 3.49117 4.85046 3.53284 3.12546 3.49117C1.40046 3.44951 0.933797 4.11617 0.933797 4.11617C0.933797 4.11617 0.400464 3.52451 5.52546 2.66617C10.6588 1.80784 14.2088 0.982841 14.2088 0.982841Z" fill="white"/>
</svg>
